<svg width="50" height="50" viewBox="0 0 50 50" fill="none" xmlns="http://www.w3.org/2000/svg">
<rect width="50" height="50" rx="25" fill="#F7F7F9"/>
<path d="M30.5556 34.7218H22.2222C19.6437 34.7218 17.1708 33.6975 15.3476 31.8742C13.5243 30.0509 12.5 27.5781 12.5 24.9996C12.5 22.4211 13.5243 19.9482 15.3476 18.1249C17.1708 16.3016 19.6437 15.2773 22.2222 15.2773C24.8007 15.2773 27.2736 16.3016 29.0969 18.1249C30.9201 19.9482 31.9444 22.4211 31.9444 24.9996V33.3329C31.9444 33.7013 31.7981 34.0545 31.5376 34.315C31.2772 34.5755 30.9239 34.7218 30.5556 34.7218ZM36.1111 27.7773H31.9444V33.3329H36.1111C36.4795 33.3329 36.8327 33.1866 37.0932 32.9261C37.3537 32.6656 37.5 32.3124 37.5 31.944V29.1662C37.5 28.7979 37.3537 28.4446 37.0932 28.1841C36.8327 27.9237 36.4795 27.7773 36.1111 27.7773ZM22.2222 29.1662C21.3981 29.1662 20.5926 28.9219 19.9073 28.464C19.2221 28.0062 18.6881 27.3554 18.3727 26.5941C18.0574 25.8327 17.9748 24.9949 18.1356 24.1867C18.2964 23.3784 18.6932 22.636 19.2759 22.0533C19.8587 21.4706 20.6011 21.0737 21.4093 20.913C22.2176 20.7522 23.0554 20.8347 23.8167 21.1501C24.5781 21.4654 25.2288 21.9995 25.6867 22.6847C26.1445 23.3699 26.3889 24.1755 26.3889 24.9996C26.3889 26.1046 25.9499 27.1644 25.1685 27.9458C24.3871 28.7272 23.3273 29.1662 22.2222 29.1662Z" fill="#F7F7F9"/>
<path d="M31.9444 33.3329V24.9996C31.9444 22.4211 30.9201 19.9482 29.0969 18.1249C27.2736 16.3016 24.8007 15.2773 22.2222 15.2773C19.6437 15.2773 17.1708 16.3016 15.3476 18.1249C13.5243 19.9482 12.5 22.4211 12.5 24.9996C12.5 27.5781 13.5243 30.0509 15.3476 31.8742C17.1708 33.6975 19.6437 34.7218 22.2222 34.7218H30.5556C30.9239 34.7218 31.2772 34.5755 31.5376 34.315C31.7981 34.0545 31.9444 33.7013 31.9444 33.3329ZM31.9444 33.3329V27.7773H36.1111C36.4795 27.7773 36.8327 27.9237 37.0932 28.1841C37.3537 28.4446 37.5 28.7979 37.5 29.1662V31.944C37.5 32.3124 37.3537 32.6656 37.0932 32.9261C36.8327 33.1866 36.4795 33.3329 36.1111 33.3329H31.9444ZM22.2222 29.1662C21.3981 29.1662 20.5926 28.9219 19.9073 28.464C19.2221 28.0062 18.6881 27.3554 18.3727 26.5941C18.0574 25.8327 17.9748 24.9949 18.1356 24.1867C18.2964 23.3784 18.6932 22.636 19.2759 22.0533C19.8587 21.4706 20.6011 21.0737 21.4093 20.913C22.2176 20.7522 23.0554 20.8347 23.8167 21.1501C24.5781 21.4654 25.2288 21.9995 25.6867 22.6847C26.1445 23.3699 26.3889 24.1755 26.3889 24.9996C26.3889 26.1046 25.9499 27.1644 25.1685 27.9458C24.3871 28.7272 23.3273 29.1662 22.2222 29.1662Z" stroke="#242C3C" stroke-linecap="round" stroke-linejoin="round"/>
</svg>
