<svg width="50" height="50" viewBox="0 0 50 50" fill="none" xmlns="http://www.w3.org/2000/svg">
<rect width="50" height="50" rx="25" fill="#F7F7F9"/>
<path d="M32.3618 19.7222L34.4451 17.6389L32.3618 19.7222ZM17.6395 19.7222L15.5562 17.6389L17.6395 19.7222ZM14.584 27.0833C14.584 29.1436 15.1949 31.1575 16.3395 32.8705C17.4841 34.5835 19.111 35.9187 21.0144 36.7071C22.9178 37.4955 25.0122 37.7018 27.0328 37.2998C29.0535 36.8979 30.9095 35.9058 32.3663 34.449C33.8231 32.9922 34.8152 31.1362 35.2172 29.1155C35.6191 27.0949 35.4128 25.0004 34.6244 23.097C33.836 21.1936 32.5008 19.5668 30.7878 18.4222C29.0748 17.2776 27.0609 16.6667 25.0006 16.6667C22.238 16.6667 19.5885 17.7641 17.635 19.7176C15.6815 21.6711 14.584 24.3207 14.584 27.0833ZM25.0006 22.2222V27.7778L27.8618 31C28.6946 30.399 29.315 29.5489 29.6335 28.5725C29.952 27.5961 29.9521 26.5437 29.6338 25.5672C29.3155 24.5907 28.6953 23.7406 27.8626 23.1394C27.0299 22.5382 26.0277 22.217 25.0006 22.2222ZM25.0006 16.6667V12.5V16.6667ZM20.834 12.5H29.1673H20.834Z" fill="#F7F7F9"/>
<path d="M32.3618 19.7222L34.4451 17.6389M17.6395 19.7222L15.5562 17.6389M25.0006 16.6667C27.0609 16.6667 29.0748 17.2776 30.7878 18.4222C32.5008 19.5668 33.836 21.1936 34.6244 23.097C35.4128 25.0004 35.6191 27.0949 35.2172 29.1155C34.8152 31.1362 33.8231 32.9922 32.3663 34.449C30.9095 35.9058 29.0535 36.8979 27.0328 37.2998C25.0122 37.7018 22.9178 37.4955 21.0144 36.7071C19.111 35.9187 17.4841 34.5835 16.3395 32.8705C15.1949 31.1575 14.584 29.1436 14.584 27.0833C14.584 24.3207 15.6815 21.6711 17.635 19.7176C19.5885 17.7641 22.238 16.6667 25.0006 16.6667ZM25.0006 16.6667V12.5M20.834 12.5H29.1673M25.0006 22.2222V27.7778L27.8618 31C28.6946 30.399 29.315 29.5489 29.6335 28.5725C29.952 27.5961 29.9521 26.5437 29.6338 25.5672C29.3155 24.5907 28.6953 23.7406 27.8626 23.1394C27.0299 22.5382 26.0277 22.217 25.0006 22.2222Z" stroke="#242C3C" stroke-linecap="round" stroke-linejoin="round"/>
</svg>
