<svg width="302" height="457" viewBox="0 0 302 457" fill="none" xmlns="http://www.w3.org/2000/svg">
<path fill-rule="evenodd" clip-rule="evenodd" d="M302.789 94.1057L302.789 258.074L200.57 457.004L116.315 457.004L302.789 94.1057ZM293.482 457.004C290.52 441.937 289.039 425.415 289.039 407.435C289.039 375.452 293.622 348.097 302.789 325.371L302.789 457.004L293.482 457.004ZM181.381 40.4321C161.877 13.4771 136.523 -0.00044157 105.318 -0.000438531C74.1122 -0.000435492 48.7578 13.4771 29.2545 40.4321C9.75113 67.3871 -0.000546484 104.191 -0.000542823 150.844C-0.000539203 196.979 9.75114 233.523 29.2545 260.478C48.7579 287.952 74.1122 301.689 105.318 301.689C136.133 301.689 161.292 287.952 180.796 260.478C200.299 233.523 210.051 196.979 210.051 150.844C210.051 104.191 200.494 67.3871 181.381 40.4321ZM80.1583 92.5279C86.3993 80.0871 94.7858 73.8667 105.318 73.8667C115.849 73.8667 124.236 80.0871 130.477 92.5279C136.718 104.969 139.839 124.407 139.839 150.844C139.839 177.281 136.718 196.719 130.477 209.16C124.236 221.601 115.849 227.821 105.318 227.821C94.7858 227.821 86.3993 221.601 80.1583 209.16C73.9172 196.719 70.7967 177.281 70.7967 150.844C70.7967 124.407 73.9172 104.969 80.1583 92.5279Z" fill="url(#paint0_linear_1_1389)"/>
<defs>
<linearGradient id="paint0_linear_1_1389" x1="295.917" y1="-20.2168" x2="-49.0515" y2="-20.2167" gradientUnits="userSpaceOnUse">
<stop stop-color="#FFE600"/>
<stop offset="0.692708" stop-color="#FFE600" stop-opacity="0"/>
</linearGradient>
</defs>
</svg>
