<svg width="32" height="32" viewBox="0 0 32 32" fill="none" xmlns="http://www.w3.org/2000/svg">
<rect width="32" height="32" rx="16" fill="#CF0953"/>
<path fill-rule="evenodd" clip-rule="evenodd" d="M19.557 23.9229C20.6753 24.4121 21.0947 23.387 21.0947 23.387L24.0536 8.5224C24.0303 7.52055 22.679 8.12632 22.679 8.12632L6.11359 14.6267C6.11359 14.6267 5.32143 14.9063 5.39133 15.3955C5.46123 15.8848 6.09029 16.1178 6.09029 16.1178L10.2608 17.5157C10.2608 17.5157 11.5189 21.6396 11.7752 22.4318C12.0082 23.2006 12.2179 23.2239 12.2179 23.2239C12.4509 23.3171 12.6605 23.154 12.6605 23.154L15.3632 20.7076L19.557 23.9229ZM20.2792 11.1551C20.2792 11.1551 20.8617 10.8057 20.8384 11.1551C20.8384 11.1551 20.9316 11.2017 20.6287 11.5279C20.3491 11.8075 13.7556 17.7254 12.8702 18.5175C12.8003 18.5641 12.7537 18.634 12.7537 18.7272L12.4974 20.9173C12.4508 21.1503 12.148 21.1736 12.0781 20.9639L10.983 17.3759C10.9364 17.2361 10.983 17.073 11.1228 16.9798L20.2792 11.1551Z" fill="white"/>
</svg>
