<svg width="26" height="26" viewBox="0 0 26 26" fill="none" xmlns="http://www.w3.org/2000/svg">
<path d="M12.9991 1.03906C6.40442 1.03906 1.03906 6.40442 1.03906 12.9991C1.03906 19.5937 6.40442 24.9591 12.9991 24.9591C19.5942 24.9591 24.9591 19.5937 24.9591 12.9991C24.9591 6.40442 19.5942 1.03906 12.9991 1.03906ZM18.185 15.3573C19.3483 16.39 19.5901 16.7587 19.6296 16.8216C20.1116 17.586 19.095 17.6791 19.095 17.6791H16.9526C16.9526 17.6791 16.4311 17.6848 15.9854 17.3894C15.259 16.9136 14.4982 15.9911 13.9637 16.1513C13.5149 16.2855 13.5191 16.8918 13.5191 17.4102C13.5191 17.5959 13.3594 17.6791 12.9991 17.6791C12.6387 17.6791 12.4889 17.6791 12.3293 17.6791C11.1557 17.6791 9.88218 17.2839 8.61182 15.9563C6.8147 14.0796 5.23858 10.2992 5.23858 10.2992C5.23858 10.2992 5.1455 10.1089 5.2469 9.99294C5.36182 9.86294 5.67434 9.87958 5.67434 9.87958L7.75174 9.87906C7.75174 9.87906 7.94726 9.91598 8.08766 10.0148C8.20362 10.0959 8.2681 10.2509 8.2681 10.2509C8.2681 10.2509 8.61702 11.4032 9.06162 12.1379C9.93002 13.5721 10.3341 13.6085 10.6289 13.4541C11.0595 13.2305 10.9191 11.7058 10.9191 11.7058C10.9191 11.7058 10.9383 11.0511 10.7137 10.7594C10.5405 10.5337 10.2093 10.4136 10.0647 10.3949C9.9477 10.3798 10.1432 10.1749 10.3923 10.0579C10.7251 9.90974 11.178 9.87178 11.9591 9.87906C12.5669 9.88478 12.7422 9.92118 12.9793 9.97578C13.6964 10.1411 13.5191 10.5774 13.5191 12.1093C13.5191 12.6002 13.4515 13.2903 13.8217 13.5191C13.9813 13.6179 14.5284 13.7385 15.5018 12.1577C15.9641 11.4079 16.3317 10.164 16.3317 10.164C16.3317 10.164 16.4077 10.0273 16.5257 9.95966C16.6463 9.8905 16.6427 9.89206 16.8081 9.89206C16.9734 9.89206 18.6317 9.87906 18.9957 9.87906C19.3592 9.87906 19.7003 9.8749 19.7591 10.0881C19.8433 10.3944 19.4907 11.4437 18.5974 12.5825C17.1294 14.4514 16.9667 14.2767 18.185 15.3573Z" fill="white"/>
</svg>
